<svg width="544" height="544" viewBox="0 0 544 544" fill="none" xmlns="http://www.w3.org/2000/svg">
<g filter="url(#filter0_d_6_44)">
<circle cx="272" cy="268" r="260" stroke="#FFB4B4" stroke-width="15" shape-rendering="crispEdges"/>
</g>
<g filter="url(#filter1_d_6_44)">
<rect x="51.5" y="216.5" width="441" height="168" rx="58.5" stroke="white" stroke-width="15" shape-rendering="crispEdges"/>
</g>
<path d="M172.766 317.484C172.766 315.484 173.453 313.812 174.828 312.469C176.234 311.125 178.094 310.453 180.406 310.453C182.719 310.453 184.562 311.125 185.938 312.469C187.344 313.812 188.047 315.484 188.047 317.484C188.047 319.484 187.344 321.156 185.938 322.5C184.562 323.844 182.719 324.516 180.406 324.516C178.094 324.516 176.234 323.844 174.828 322.5C173.453 321.156 172.766 319.484 172.766 317.484ZM172.766 278.812C172.766 276.812 173.453 275.141 174.828 273.797C176.234 272.453 178.094 271.781 180.406 271.781C182.719 271.781 184.562 272.453 185.938 273.797C187.344 275.141 188.047 276.812 188.047 278.812C188.047 280.812 187.344 282.484 185.938 283.828C184.562 285.172 182.719 285.844 180.406 285.844C178.094 285.844 176.234 285.172 174.828 283.828C173.453 282.484 172.766 280.812 172.766 278.812Z" fill="white"/>
<path d="M102.969 295.906V304.766C102.969 308.609 102.559 311.926 101.738 314.715C100.918 317.48 99.7344 319.754 98.1875 321.535C96.6641 323.293 94.8477 324.594 92.7383 325.438C90.6289 326.281 88.2852 326.703 85.707 326.703C83.6445 326.703 81.7227 326.445 79.9414 325.93C78.1602 325.391 76.5547 324.559 75.125 323.434C73.7188 322.309 72.5 320.891 71.4688 319.18C70.4609 317.445 69.6875 315.383 69.1484 312.992C68.6094 310.602 68.3398 307.859 68.3398 304.766V295.906C68.3398 292.062 68.75 288.77 69.5703 286.027C70.4141 283.262 71.5977 281 73.1211 279.242C74.668 277.484 76.4961 276.195 78.6055 275.375C80.7148 274.531 83.0586 274.109 85.6367 274.109C87.6992 274.109 89.6094 274.379 91.3672 274.918C93.1484 275.434 94.7539 276.242 96.1836 277.344C97.6133 278.445 98.832 279.863 99.8398 281.598C100.848 283.309 101.621 285.359 102.16 287.75C102.699 290.117 102.969 292.836 102.969 295.906ZM92.8086 306.102V294.535C92.8086 292.684 92.7031 291.066 92.4922 289.684C92.3047 288.301 92.0117 287.129 91.6133 286.168C91.2148 285.184 90.7227 284.387 90.1367 283.777C89.5508 283.168 88.8828 282.723 88.1328 282.441C87.3828 282.16 86.5508 282.02 85.6367 282.02C84.4883 282.02 83.4688 282.242 82.5781 282.688C81.7109 283.133 80.9727 283.848 80.3633 284.832C79.7539 285.793 79.2852 287.082 78.957 288.699C78.6523 290.293 78.5 292.238 78.5 294.535V306.102C78.5 307.953 78.5938 309.582 78.7812 310.988C78.9922 312.395 79.2969 313.602 79.6953 314.609C80.1172 315.594 80.6094 316.402 81.1719 317.035C81.7578 317.645 82.4258 318.09 83.1758 318.371C83.9492 318.652 84.793 318.793 85.707 318.793C86.832 318.793 87.8281 318.57 88.6953 318.125C89.5859 317.656 90.3359 316.93 90.9453 315.945C91.5781 314.938 92.0469 313.625 92.3516 312.008C92.6562 310.391 92.8086 308.422 92.8086 306.102ZM119.387 302.691L111.301 300.758L114.219 274.812H142.977V283.004H122.551L121.285 294.359C121.965 293.961 122.996 293.539 124.379 293.094C125.762 292.625 127.309 292.391 129.02 292.391C131.504 292.391 133.707 292.777 135.629 293.551C137.551 294.324 139.18 295.449 140.516 296.926C141.875 298.402 142.906 300.207 143.609 302.34C144.312 304.473 144.664 306.887 144.664 309.582C144.664 311.855 144.312 314.023 143.609 316.086C142.906 318.125 141.84 319.953 140.41 321.57C138.98 323.164 137.188 324.418 135.031 325.332C132.875 326.246 130.32 326.703 127.367 326.703C125.164 326.703 123.031 326.375 120.969 325.719C118.93 325.062 117.09 324.09 115.449 322.801C113.832 321.512 112.531 319.953 111.547 318.125C110.586 316.273 110.082 314.164 110.035 311.797H120.09C120.23 313.25 120.605 314.504 121.215 315.559C121.848 316.59 122.68 317.387 123.711 317.949C124.742 318.512 125.949 318.793 127.332 318.793C128.621 318.793 129.723 318.547 130.637 318.055C131.551 317.562 132.289 316.883 132.852 316.016C133.414 315.125 133.824 314.094 134.082 312.922C134.363 311.727 134.504 310.438 134.504 309.055C134.504 307.672 134.34 306.418 134.012 305.293C133.684 304.168 133.18 303.195 132.5 302.375C131.82 301.555 130.953 300.922 129.898 300.477C128.867 300.031 127.66 299.809 126.277 299.809C124.402 299.809 122.949 300.102 121.918 300.688C120.91 301.273 120.066 301.941 119.387 302.691Z" fill="white"/>
<path d="M377.043 298.691L368.957 296.758L371.875 270.812H400.633V279.004H380.207L378.941 290.359C379.621 289.961 380.652 289.539 382.035 289.094C383.418 288.625 384.965 288.391 386.676 288.391C389.16 288.391 391.363 288.777 393.285 289.551C395.207 290.324 396.836 291.449 398.172 292.926C399.531 294.402 400.562 296.207 401.266 298.34C401.969 300.473 402.32 302.887 402.32 305.582C402.32 307.855 401.969 310.023 401.266 312.086C400.562 314.125 399.496 315.953 398.066 317.57C396.637 319.164 394.844 320.418 392.688 321.332C390.531 322.246 387.977 322.703 385.023 322.703C382.82 322.703 380.688 322.375 378.625 321.719C376.586 321.062 374.746 320.09 373.105 318.801C371.488 317.512 370.188 315.953 369.203 314.125C368.242 312.273 367.738 310.164 367.691 307.797H377.746C377.887 309.25 378.262 310.504 378.871 311.559C379.504 312.59 380.336 313.387 381.367 313.949C382.398 314.512 383.605 314.793 384.988 314.793C386.277 314.793 387.379 314.547 388.293 314.055C389.207 313.562 389.945 312.883 390.508 312.016C391.07 311.125 391.48 310.094 391.738 308.922C392.02 307.727 392.16 306.438 392.16 305.055C392.16 303.672 391.996 302.418 391.668 301.293C391.34 300.168 390.836 299.195 390.156 298.375C389.477 297.555 388.609 296.922 387.555 296.477C386.523 296.031 385.316 295.809 383.934 295.809C382.059 295.809 380.605 296.102 379.574 296.688C378.566 297.273 377.723 297.941 377.043 298.691ZM416.031 314.301H416.699C419.512 314.301 421.926 313.961 423.941 313.281C425.98 312.578 427.656 311.57 428.969 310.258C430.281 308.945 431.254 307.34 431.887 305.441C432.52 303.52 432.836 301.34 432.836 298.902V289.199C432.836 287.348 432.648 285.719 432.273 284.312C431.922 282.906 431.406 281.746 430.727 280.832C430.07 279.895 429.297 279.191 428.406 278.723C427.539 278.254 426.578 278.02 425.523 278.02C424.398 278.02 423.402 278.301 422.535 278.863C421.668 279.402 420.93 280.141 420.32 281.078C419.734 282.016 419.277 283.094 418.949 284.312C418.645 285.508 418.492 286.762 418.492 288.074C418.492 289.387 418.645 290.641 418.949 291.836C419.254 293.008 419.711 294.051 420.32 294.965C420.93 295.855 421.691 296.57 422.605 297.109C423.52 297.625 424.598 297.883 425.84 297.883C427.035 297.883 428.102 297.66 429.039 297.215C430 296.746 430.809 296.137 431.465 295.387C432.145 294.637 432.66 293.805 433.012 292.891C433.387 291.977 433.574 291.051 433.574 290.113L436.914 291.941C436.914 293.582 436.562 295.199 435.859 296.793C435.156 298.387 434.172 299.84 432.906 301.152C431.664 302.441 430.223 303.473 428.582 304.246C426.941 305.02 425.184 305.406 423.309 305.406C420.918 305.406 418.797 304.973 416.945 304.105C415.094 303.215 413.523 301.996 412.234 300.449C410.969 298.879 410.008 297.051 409.352 294.965C408.695 292.879 408.367 290.617 408.367 288.18C408.367 285.695 408.766 283.363 409.562 281.184C410.383 279.004 411.543 277.082 413.043 275.418C414.566 273.754 416.383 272.453 418.492 271.516C420.625 270.555 422.992 270.074 425.594 270.074C428.195 270.074 430.562 270.578 432.695 271.586C434.828 272.594 436.656 274.023 438.18 275.875C439.703 277.703 440.875 279.895 441.695 282.449C442.539 285.004 442.961 287.84 442.961 290.957V294.473C442.961 297.801 442.598 300.895 441.871 303.754C441.168 306.613 440.102 309.203 438.672 311.523C437.266 313.82 435.508 315.789 433.398 317.43C431.312 319.07 428.887 320.324 426.121 321.191C423.355 322.059 420.262 322.492 416.84 322.492H416.031V314.301Z" fill="white"/>
<path d="M259.531 316.09V324H224.516V317.25L241.074 299.496C242.738 297.645 244.051 296.016 245.012 294.609C245.973 293.18 246.664 291.902 247.086 290.777C247.531 289.629 247.754 288.539 247.754 287.508C247.754 285.961 247.496 284.637 246.98 283.535C246.465 282.41 245.703 281.543 244.695 280.934C243.711 280.324 242.492 280.02 241.039 280.02C239.492 280.02 238.156 280.395 237.031 281.145C235.93 281.895 235.086 282.938 234.5 284.273C233.938 285.609 233.656 287.121 233.656 288.809H223.496C223.496 285.762 224.223 282.973 225.676 280.441C227.129 277.887 229.18 275.859 231.828 274.359C234.477 272.836 237.617 272.074 241.25 272.074C244.836 272.074 247.859 272.66 250.32 273.832C252.805 274.98 254.68 276.645 255.945 278.824C257.234 280.98 257.879 283.559 257.879 286.559C257.879 288.246 257.609 289.898 257.07 291.516C256.531 293.109 255.758 294.703 254.75 296.297C253.766 297.867 252.57 299.461 251.164 301.078C249.758 302.695 248.199 304.371 246.488 306.105L237.594 316.09H259.531ZM300.312 293.906V302.766C300.312 306.609 299.902 309.926 299.082 312.715C298.262 315.48 297.078 317.754 295.531 319.535C294.008 321.293 292.191 322.594 290.082 323.438C287.973 324.281 285.629 324.703 283.051 324.703C280.988 324.703 279.066 324.445 277.285 323.93C275.504 323.391 273.898 322.559 272.469 321.434C271.062 320.309 269.844 318.891 268.812 317.18C267.805 315.445 267.031 313.383 266.492 310.992C265.953 308.602 265.684 305.859 265.684 302.766V293.906C265.684 290.062 266.094 286.77 266.914 284.027C267.758 281.262 268.941 279 270.465 277.242C272.012 275.484 273.84 274.195 275.949 273.375C278.059 272.531 280.402 272.109 282.98 272.109C285.043 272.109 286.953 272.379 288.711 272.918C290.492 273.434 292.098 274.242 293.527 275.344C294.957 276.445 296.176 277.863 297.184 279.598C298.191 281.309 298.965 283.359 299.504 285.75C300.043 288.117 300.312 290.836 300.312 293.906ZM290.152 304.102V292.535C290.152 290.684 290.047 289.066 289.836 287.684C289.648 286.301 289.355 285.129 288.957 284.168C288.559 283.184 288.066 282.387 287.48 281.777C286.895 281.168 286.227 280.723 285.477 280.441C284.727 280.16 283.895 280.02 282.98 280.02C281.832 280.02 280.812 280.242 279.922 280.688C279.055 281.133 278.316 281.848 277.707 282.832C277.098 283.793 276.629 285.082 276.301 286.699C275.996 288.293 275.844 290.238 275.844 292.535V304.102C275.844 305.953 275.938 307.582 276.125 308.988C276.336 310.395 276.641 311.602 277.039 312.609C277.461 313.594 277.953 314.402 278.516 315.035C279.102 315.645 279.77 316.09 280.52 316.371C281.293 316.652 282.137 316.793 283.051 316.793C284.176 316.793 285.172 316.57 286.039 316.125C286.93 315.656 287.68 314.93 288.289 313.945C288.922 312.938 289.391 311.625 289.695 310.008C290 308.391 290.152 306.422 290.152 304.102Z" fill="white"/>
<path d="M327.766 317.484C327.766 315.484 328.453 313.812 329.828 312.469C331.234 311.125 333.094 310.453 335.406 310.453C337.719 310.453 339.562 311.125 340.938 312.469C342.344 313.812 343.047 315.484 343.047 317.484C343.047 319.484 342.344 321.156 340.938 322.5C339.562 323.844 337.719 324.516 335.406 324.516C333.094 324.516 331.234 323.844 329.828 322.5C328.453 321.156 327.766 319.484 327.766 317.484ZM327.766 278.812C327.766 276.812 328.453 275.141 329.828 273.797C331.234 272.453 333.094 271.781 335.406 271.781C337.719 271.781 339.562 272.453 340.938 273.797C342.344 275.141 343.047 276.812 343.047 278.812C343.047 280.812 342.344 282.484 340.938 283.828C339.562 285.172 337.719 285.844 335.406 285.844C333.094 285.844 331.234 285.172 329.828 283.828C328.453 282.484 327.766 280.812 327.766 278.812Z" fill="white"/>
<g filter="url(#filter2_d_6_44)">
<rect x="108" y="129" width="307" height="54" fill="#D0D0D0" fill-opacity="0.11" shape-rendering="crispEdges"/>
<rect x="108.5" y="129.5" width="306" height="53" stroke="#674F9A" shape-rendering="crispEdges"/>
</g>
<path d="M123.027 143.539H131.776C133.57 143.539 135.112 143.808 136.401 144.345C137.701 144.882 138.7 145.677 139.398 146.729C140.096 147.782 140.445 149.077 140.445 150.613C140.445 151.87 140.23 152.949 139.801 153.852C139.382 154.743 138.786 155.49 138.012 156.091C137.25 156.682 136.353 157.155 135.321 157.509L133.791 158.315H126.185L126.153 154.544H131.809C132.657 154.544 133.361 154.394 133.919 154.093C134.478 153.792 134.897 153.374 135.176 152.836C135.466 152.299 135.611 151.676 135.611 150.967C135.611 150.215 135.472 149.565 135.192 149.018C134.913 148.47 134.489 148.051 133.919 147.761C133.35 147.471 132.636 147.326 131.776 147.326H127.861V167H123.027V143.539ZM136.143 167L130.793 156.542L135.901 156.51L141.315 166.774V167H136.143ZM154.19 162.827V149.565H158.831V167H154.464L154.19 162.827ZM154.706 159.25L156.075 159.217C156.075 160.377 155.941 161.457 155.672 162.456C155.404 163.444 155.001 164.304 154.464 165.034C153.927 165.754 153.25 166.318 152.434 166.726C151.617 167.124 150.656 167.322 149.549 167.322C148.701 167.322 147.917 167.204 147.197 166.968C146.488 166.721 145.875 166.339 145.36 165.824C144.855 165.297 144.458 164.626 144.167 163.81C143.888 162.982 143.749 161.989 143.749 160.829V149.565H148.389V160.861C148.389 161.376 148.448 161.812 148.566 162.166C148.695 162.521 148.873 162.811 149.098 163.036C149.324 163.262 149.587 163.423 149.888 163.52C150.199 163.616 150.543 163.665 150.919 163.665C151.875 163.665 152.627 163.471 153.175 163.084C153.733 162.698 154.125 162.171 154.351 161.505C154.587 160.829 154.706 160.077 154.706 159.25ZM166.919 153.288V167H162.279V149.565H166.629L166.919 153.288ZM166.243 157.67H164.986C164.986 156.381 165.152 155.221 165.485 154.19C165.818 153.148 166.286 152.262 166.887 151.531C167.489 150.79 168.203 150.226 169.03 149.839C169.868 149.442 170.803 149.243 171.834 149.243C172.65 149.243 173.397 149.361 174.074 149.598C174.75 149.834 175.331 150.21 175.814 150.726C176.308 151.241 176.684 151.923 176.942 152.772C177.21 153.621 177.345 154.657 177.345 155.882V167H172.672V155.866C172.672 155.092 172.564 154.491 172.35 154.061C172.135 153.631 171.818 153.331 171.399 153.159C170.991 152.976 170.486 152.885 169.884 152.885C169.261 152.885 168.719 153.008 168.257 153.255C167.806 153.502 167.43 153.846 167.129 154.287C166.839 154.716 166.619 155.221 166.468 155.801C166.318 156.381 166.243 157.004 166.243 157.67ZM185.417 153.288V167H180.777V149.565H185.127L185.417 153.288ZM184.741 157.67H183.484C183.484 156.381 183.65 155.221 183.983 154.19C184.316 153.148 184.784 152.262 185.385 151.531C185.987 150.79 186.701 150.226 187.528 149.839C188.366 149.442 189.301 149.243 190.332 149.243C191.148 149.243 191.895 149.361 192.572 149.598C193.249 149.834 193.829 150.21 194.312 150.726C194.806 151.241 195.182 151.923 195.44 152.772C195.708 153.621 195.843 154.657 195.843 155.882V167H191.17V155.866C191.17 155.092 191.062 154.491 190.848 154.061C190.633 153.631 190.316 153.331 189.897 153.159C189.489 152.976 188.984 152.885 188.382 152.885C187.759 152.885 187.217 153.008 186.755 153.255C186.304 153.502 185.928 153.846 185.627 154.287C185.337 154.716 185.117 155.221 184.966 155.801C184.816 156.381 184.741 157.004 184.741 157.67ZM204.27 149.565V167H199.613V149.565H204.27ZM199.323 145.021C199.323 144.345 199.56 143.786 200.032 143.346C200.505 142.905 201.139 142.685 201.934 142.685C202.718 142.685 203.346 142.905 203.819 143.346C204.302 143.786 204.544 144.345 204.544 145.021C204.544 145.698 204.302 146.257 203.819 146.697C203.346 147.138 202.718 147.358 201.934 147.358C201.139 147.358 200.505 147.138 200.032 146.697C199.56 146.257 199.323 145.698 199.323 145.021ZM212.649 153.288V167H208.008V149.565H212.359L212.649 153.288ZM211.972 157.67H210.715C210.715 156.381 210.882 155.221 211.215 154.19C211.548 153.148 212.015 152.262 212.617 151.531C213.218 150.79 213.933 150.226 214.76 149.839C215.598 149.442 216.532 149.243 217.563 149.243C218.38 149.243 219.126 149.361 219.803 149.598C220.48 149.834 221.06 150.21 221.543 150.726C222.038 151.241 222.414 151.923 222.671 152.772C222.94 153.621 223.074 154.657 223.074 155.882V167H218.401V155.866C218.401 155.092 218.294 154.491 218.079 154.061C217.864 153.631 217.547 153.331 217.128 153.159C216.72 152.976 216.215 152.885 215.614 152.885C214.991 152.885 214.448 153.008 213.986 153.255C213.535 153.502 213.159 153.846 212.858 154.287C212.568 154.716 212.348 155.221 212.198 155.801C212.047 156.381 211.972 157.004 211.972 157.67ZM237.641 149.565H241.846V166.42C241.846 168.01 241.492 169.358 240.783 170.464C240.084 171.582 239.107 172.425 237.85 172.994C236.593 173.574 235.132 173.864 233.467 173.864C232.737 173.864 231.963 173.768 231.147 173.574C230.341 173.381 229.568 173.08 228.827 172.672C228.096 172.264 227.484 171.748 226.99 171.125L229.036 168.386C229.573 169.009 230.196 169.492 230.905 169.836C231.614 170.19 232.398 170.368 233.258 170.368C234.096 170.368 234.805 170.212 235.385 169.9C235.965 169.6 236.411 169.154 236.722 168.563C237.034 167.983 237.189 167.279 237.189 166.452V153.594L237.641 149.565ZM225.91 158.492V158.154C225.91 156.822 226.071 155.613 226.394 154.528C226.727 153.433 227.194 152.493 227.795 151.708C228.408 150.924 229.149 150.317 230.019 149.888C230.889 149.458 231.872 149.243 232.968 149.243C234.128 149.243 235.1 149.458 235.884 149.888C236.668 150.317 237.313 150.93 237.818 151.725C238.323 152.509 238.715 153.438 238.994 154.512C239.284 155.576 239.51 156.741 239.671 158.009V158.75C239.51 159.964 239.268 161.092 238.946 162.134C238.624 163.176 238.199 164.089 237.673 164.873C237.146 165.646 236.491 166.248 235.707 166.678C234.934 167.107 234.01 167.322 232.936 167.322C231.861 167.322 230.889 167.102 230.019 166.662C229.16 166.221 228.424 165.604 227.812 164.809C227.199 164.014 226.727 163.079 226.394 162.005C226.071 160.931 225.91 159.76 225.91 158.492ZM230.551 158.154V158.492C230.551 159.212 230.621 159.883 230.76 160.506C230.9 161.129 231.115 161.683 231.405 162.166C231.706 162.639 232.076 163.009 232.517 163.278C232.968 163.536 233.5 163.665 234.112 163.665C234.96 163.665 235.653 163.487 236.19 163.133C236.728 162.768 237.13 162.268 237.399 161.634C237.667 161 237.823 160.27 237.866 159.443V157.332C237.845 156.655 237.753 156.048 237.592 155.511C237.431 154.963 237.206 154.496 236.916 154.109C236.625 153.723 236.25 153.422 235.788 153.207C235.326 152.992 234.778 152.885 234.144 152.885C233.532 152.885 233 153.024 232.549 153.304C232.108 153.572 231.738 153.943 231.437 154.416C231.147 154.888 230.927 155.447 230.776 156.091C230.626 156.725 230.551 157.413 230.551 158.154ZM258.652 162.488L262.278 149.565H265.227L264.276 154.641L260.65 167H258.185L258.652 162.488ZM256.815 149.565L259.41 162.472L259.651 167H256.751L252.336 149.565H256.815ZM268.546 162.263L271.076 149.565H275.571L271.156 167H268.272L268.546 162.263ZM265.629 149.565L269.239 162.392L269.738 167H267.257L263.631 154.657L262.713 149.565H265.629ZM277.167 158.46V158.122C277.167 156.843 277.349 155.667 277.714 154.593C278.08 153.508 278.611 152.568 279.31 151.773C280.008 150.978 280.867 150.36 281.888 149.92C282.908 149.469 284.079 149.243 285.4 149.243C286.722 149.243 287.898 149.469 288.929 149.92C289.96 150.36 290.825 150.978 291.523 151.773C292.232 152.568 292.77 153.508 293.135 154.593C293.5 155.667 293.683 156.843 293.683 158.122V158.46C293.683 159.728 293.5 160.904 293.135 161.989C292.77 163.063 292.232 164.003 291.523 164.809C290.825 165.604 289.966 166.221 288.945 166.662C287.925 167.102 286.754 167.322 285.433 167.322C284.111 167.322 282.935 167.102 281.904 166.662C280.883 166.221 280.019 165.604 279.31 164.809C278.611 164.003 278.08 163.063 277.714 161.989C277.349 160.904 277.167 159.728 277.167 158.46ZM281.807 158.122V158.46C281.807 159.19 281.872 159.873 282 160.506C282.129 161.14 282.333 161.699 282.613 162.182C282.903 162.655 283.279 163.025 283.741 163.294C284.203 163.562 284.767 163.697 285.433 163.697C286.077 163.697 286.63 163.562 287.092 163.294C287.554 163.025 287.925 162.655 288.204 162.182C288.483 161.699 288.688 161.14 288.816 160.506C288.956 159.873 289.026 159.19 289.026 158.46V158.122C289.026 157.413 288.956 156.747 288.816 156.124C288.688 155.49 288.478 154.931 288.188 154.448C287.909 153.954 287.538 153.567 287.076 153.288C286.614 153.008 286.056 152.869 285.4 152.869C284.745 152.869 284.187 153.008 283.725 153.288C283.273 153.567 282.903 153.954 282.613 154.448C282.333 154.931 282.129 155.49 282 156.124C281.872 156.747 281.807 157.413 281.807 158.122ZM301.175 153.368V167H296.535V149.565H300.901L301.175 153.368ZM306.428 149.453L306.348 153.755C306.122 153.723 305.848 153.696 305.526 153.674C305.214 153.642 304.93 153.626 304.672 153.626C304.017 153.626 303.447 153.712 302.964 153.884C302.491 154.045 302.094 154.287 301.771 154.609C301.46 154.931 301.224 155.323 301.062 155.785C300.912 156.247 300.826 156.773 300.805 157.364L299.87 157.074C299.87 155.946 299.983 154.91 300.208 153.964C300.434 153.008 300.762 152.176 301.191 151.467C301.632 150.758 302.169 150.21 302.803 149.823C303.437 149.437 304.162 149.243 304.978 149.243C305.236 149.243 305.499 149.265 305.768 149.308C306.036 149.34 306.256 149.388 306.428 149.453ZM313.26 142.234V167H308.62V142.234H313.26ZM324.25 149.565L316.676 158.202L312.616 162.311L310.924 158.959L314.146 154.867L318.674 149.565H324.25ZM319.432 167L314.275 158.943L317.482 156.14L324.781 167H319.432ZM343.005 149.565V152.853H332.854V149.565H343.005ZM335.368 145.263H340.008V161.747C340.008 162.252 340.073 162.639 340.202 162.907C340.341 163.176 340.545 163.364 340.814 163.471C341.083 163.568 341.421 163.616 341.829 163.616C342.119 163.616 342.377 163.605 342.603 163.584C342.839 163.552 343.038 163.52 343.199 163.487L343.215 166.903C342.817 167.032 342.388 167.134 341.926 167.209C341.464 167.285 340.954 167.322 340.395 167.322C339.375 167.322 338.483 167.156 337.72 166.823C336.968 166.479 336.388 165.931 335.98 165.179C335.572 164.427 335.368 163.439 335.368 162.214V145.263ZM350.546 149.565V167H345.89V149.565H350.546ZM345.6 145.021C345.6 144.345 345.836 143.786 346.309 143.346C346.781 142.905 347.415 142.685 348.21 142.685C348.994 142.685 349.623 142.905 350.095 143.346C350.579 143.786 350.82 144.345 350.82 145.021C350.82 145.698 350.579 146.257 350.095 146.697C349.623 147.138 348.994 147.358 348.21 147.358C347.415 147.358 346.781 147.138 346.309 146.697C345.836 146.257 345.6 145.698 345.6 145.021ZM359.022 153.175V167H354.365V149.565H358.732L359.022 153.175ZM358.377 157.67H357.088C357.088 156.457 357.233 155.339 357.523 154.319C357.824 153.288 358.259 152.396 358.829 151.644C359.409 150.881 360.123 150.291 360.972 149.872C361.82 149.453 362.803 149.243 363.92 149.243C364.694 149.243 365.403 149.361 366.047 149.598C366.692 149.823 367.245 150.183 367.707 150.677C368.18 151.161 368.545 151.794 368.803 152.579C369.061 153.352 369.189 154.281 369.189 155.366V167H364.549V155.882C364.549 155.087 364.441 154.475 364.227 154.045C364.012 153.615 363.706 153.314 363.308 153.143C362.921 152.971 362.454 152.885 361.906 152.885C361.305 152.885 360.778 153.008 360.327 153.255C359.887 153.502 359.521 153.846 359.231 154.287C358.941 154.716 358.727 155.221 358.587 155.801C358.447 156.381 358.377 157.004 358.377 157.67ZM368.754 157.139L367.095 157.348C367.095 156.209 367.234 155.151 367.514 154.174C367.804 153.196 368.228 152.337 368.787 151.596C369.356 150.854 370.06 150.28 370.897 149.872C371.735 149.453 372.702 149.243 373.798 149.243C374.636 149.243 375.398 149.367 376.086 149.614C376.773 149.85 377.359 150.231 377.842 150.758C378.336 151.273 378.712 151.95 378.97 152.788C379.239 153.626 379.373 154.652 379.373 155.866V167H374.716V155.866C374.716 155.06 374.609 154.448 374.394 154.029C374.19 153.599 373.889 153.304 373.492 153.143C373.105 152.971 372.643 152.885 372.106 152.885C371.547 152.885 371.059 152.998 370.64 153.223C370.221 153.438 369.872 153.739 369.592 154.125C369.313 154.512 369.104 154.963 368.964 155.479C368.824 155.984 368.754 156.537 368.754 157.139ZM390.991 167.322C389.637 167.322 388.423 167.107 387.349 166.678C386.275 166.237 385.362 165.63 384.61 164.857C383.869 164.083 383.299 163.187 382.902 162.166C382.504 161.135 382.306 160.039 382.306 158.879V158.234C382.306 156.913 382.494 155.705 382.87 154.609C383.246 153.513 383.783 152.562 384.481 151.757C385.19 150.951 386.049 150.333 387.059 149.904C388.069 149.463 389.208 149.243 390.475 149.243C391.71 149.243 392.806 149.447 393.762 149.855C394.718 150.264 395.519 150.844 396.163 151.596C396.818 152.348 397.312 153.25 397.646 154.303C397.979 155.345 398.145 156.505 398.145 157.783V159.717H384.288V156.623H393.585V156.269C393.585 155.624 393.467 155.049 393.23 154.544C393.005 154.029 392.661 153.621 392.199 153.32C391.737 153.019 391.146 152.869 390.427 152.869C389.814 152.869 389.288 153.003 388.848 153.271C388.407 153.54 388.047 153.916 387.768 154.399C387.5 154.883 387.295 155.452 387.156 156.107C387.027 156.752 386.962 157.461 386.962 158.234V158.879C386.962 159.577 387.059 160.222 387.252 160.812C387.457 161.403 387.741 161.914 388.106 162.343C388.482 162.773 388.934 163.106 389.46 163.342C389.997 163.579 390.604 163.697 391.281 163.697C392.119 163.697 392.897 163.536 393.617 163.213C394.348 162.88 394.976 162.381 395.502 161.715L397.758 164.164C397.393 164.69 396.894 165.195 396.26 165.679C395.637 166.162 394.885 166.56 394.004 166.871C393.123 167.172 392.119 167.322 390.991 167.322ZM405.428 153.368V167H400.788V149.565H405.154L405.428 153.368ZM410.681 149.453L410.601 153.755C410.375 153.723 410.101 153.696 409.779 153.674C409.467 153.642 409.183 153.626 408.925 153.626C408.27 153.626 407.7 153.712 407.217 153.884C406.744 154.045 406.347 154.287 406.024 154.609C405.713 154.931 405.477 155.323 405.315 155.785C405.165 156.247 405.079 156.773 405.058 157.364L404.123 157.074C404.123 155.946 404.236 154.91 404.461 153.964C404.687 153.008 405.015 152.176 405.444 151.467C405.885 150.758 406.422 150.21 407.056 149.823C407.689 149.437 408.415 149.243 409.231 149.243C409.489 149.243 409.752 149.265 410.021 149.308C410.289 149.34 410.509 149.388 410.681 149.453Z" fill="#ABABAB"/>
<defs>
<filter id="filter0_d_6_44" x="0.5" y="0.5" width="543" height="543" filterUnits="userSpaceOnUse" color-interpolation-filters="sRGB">
<feFlood flood-opacity="0" result="BackgroundImageFix"/>
<feColorMatrix in="SourceAlpha" type="matrix" values="0 0 0 0 0 0 0 0 0 0 0 0 0 0 0 0 0 0 127 0" result="hardAlpha"/>
<feOffset dy="4"/>
<feGaussianBlur stdDeviation="2"/>
<feComposite in2="hardAlpha" operator="out"/>
<feColorMatrix type="matrix" values="0 0 0 0 0 0 0 0 0 0 0 0 0 0 0 0 0 0 0.25 0"/>
<feBlend mode="normal" in2="BackgroundImageFix" result="effect1_dropShadow_6_44"/>
<feBlend mode="normal" in="SourceGraphic" in2="effect1_dropShadow_6_44" result="shape"/>
</filter>
<filter id="filter1_d_6_44" x="40" y="209" width="464" height="191" filterUnits="userSpaceOnUse" color-interpolation-filters="sRGB">
<feFlood flood-opacity="0" result="BackgroundImageFix"/>
<feColorMatrix in="SourceAlpha" type="matrix" values="0 0 0 0 0 0 0 0 0 0 0 0 0 0 0 0 0 0 127 0" result="hardAlpha"/>
<feOffset dy="4"/>
<feGaussianBlur stdDeviation="2"/>
<feComposite in2="hardAlpha" operator="out"/>
<feColorMatrix type="matrix" values="0 0 0 0 0 0 0 0 0 0 0 0 0 0 0 0 0 0 0.25 0"/>
<feBlend mode="normal" in2="BackgroundImageFix" result="effect1_dropShadow_6_44"/>
<feBlend mode="normal" in="SourceGraphic" in2="effect1_dropShadow_6_44" result="shape"/>
</filter>
<filter id="filter2_d_6_44" x="104" y="129" width="315" height="62" filterUnits="userSpaceOnUse" color-interpolation-filters="sRGB">
<feFlood flood-opacity="0" result="BackgroundImageFix"/>
<feColorMatrix in="SourceAlpha" type="matrix" values="0 0 0 0 0 0 0 0 0 0 0 0 0 0 0 0 0 0 127 0" result="hardAlpha"/>
<feOffset dy="4"/>
<feGaussianBlur stdDeviation="2"/>
<feComposite in2="hardAlpha" operator="out"/>
<feColorMatrix type="matrix" values="0 0 0 0 0 0 0 0 0 0 0 0 0 0 0 0 0 0 0.25 0"/>
<feBlend mode="normal" in2="BackgroundImageFix" result="effect1_dropShadow_6_44"/>
<feBlend mode="normal" in="SourceGraphic" in2="effect1_dropShadow_6_44" result="shape"/>
</filter>
</defs>
</svg>
